<svg width="258" height="280" xmlns="http://www.w3.org/2000/svg" xmlns:xlink="http://www.w3.org/1999/xlink" xml:space="preserve" overflow="hidden"><g><path d="M72.7564 0.441815 72.7564 11.5504C72.7564 11.5504 101.479 12.4511 106.082 17.6552 114.589 27.0625 110.786 48.8794 110.786 48.8794 41.7324 53.0826 1.20093 103.822 0.300233 130.443-3.30256 233.222 111.186 231.121 111.186 231.121 112.087 262.945 113.088 268.75 74.2576 268.95L73.8573 279.658 184.843 279.658 184.843 268.95C145.613 268.55 146.213 266.248 146.614 231.421 193.95 227.718 257.299 194.192 257.6 140.65 258 79.3029 196.953 49.7801 146.914 48.9794 146.914 48.9794 141.41 24.3604 153.019 15.7537 157.622 12.351 184.743 11.1501 184.743 11.1501L184.143 0.441815 72.7564 0.441815Z" stroke="#000000" stroke-width="0.500388" stroke-miterlimit="10" fill="#FFFFFF"/><path d="M111.787 61.3891 111.787 218.511C111.787 218.511 37.429 216.209 35.2273 139.55 32.8254 57.8863 111.787 61.3891 111.787 61.3891Z" stroke="#000000" stroke-width="0.500388" stroke-miterlimit="10" fill="none"/><path d="M147.014 61.3891 147.014 218.511C147.014 218.511 220.471 219.512 222.372 142.452 224.374 61.3891 147.014 61.3891 147.014 61.3891Z" stroke="#000000" stroke-width="0.500388" stroke-miterlimit="10" fill="none"/></g></svg>